<svg xmlns="http://www.w3.org/2000/svg" xmlns:xlink="http://www.w3.org/1999/xlink" version="1.1" id="Layer_1" x="0px" y="0px" style="enable-background:new 0 0 1920 1080;" xml:space="preserve" viewBox="453.8 346.2 1062.52 368.2">
<style type="text/css">
	.st0{fill:#007575;}
	.st{fill: #000;}
</style>
<g>
	<g id="XMLID_2_">
		<g>
			<path class="st0" d="M1499.3,452.3c4.8,8.5,8.8,17.1,8.2,27.2c-0.5,8.1-4.1,15.1-7.5,22.1c-6.5,13-16.1,23.6-27,32.7     c-6.3,5.2-14.6,8.1-22.1,11.9c-3.3,1.6-6.9,2.6-10.9,4.1c0.1-1.3,0-1.9,0.2-2.4c3.9-11.9,0-22.2-6.4-32     c-6.4-9.6-15.6-15.6-25.8-20.3c-9.9-4.5-20-8.4-29.7-13.4c-4.8-2.5-8.9-5.9-12.3-10.1c-8-10.3-7.4-21.4-1.4-32.5     c10-18.5,26-28.3,46.6-30.3c16.3-1.6,32.7-2.6,49.1-4.1l5.8,4.4c-2.6,3.6-2.9,8.6,0.1,12.9c1.6,2.3,4.1,4,5.9,6.3     c1,1.2,1.9,3,1.8,4.5c-0.4,8.6,4.9,15,13.5,15.6c1.7,0.1,3.5,0.4,5,0C1496,447.7,1497.7,449.6,1499.3,452.3z"/>
			<path class="st0" d="M1502.8,435.7c-0.4,1-0.6,2.5-1.4,3.7c-1.3,2-2.9,2.4-5,0.7c-4.6-3.7-9.3-7.2-13.9-10.9     c-0.8-0.6-1.6-2.5-1.3-3.2c1.9-3.6,4-7.2,6.3-10.5c0.5-0.7,3-1,3.6-0.4C1497.1,420.6,1501.4,427.1,1502.8,435.7z"/>
			<path class="st0" d="M1513.1,429.4c4.6,22.5,4.8,44.9-2.9,66.8c-1.6,4.4-4.5,8.5-6.9,12.6c-0.4,0.7-1.2,1.1-2.5,2.3     c2.4-5,4.2-9.3,6.4-13.4c8.9-16.6,6.1-32.4-3.4-47.6c-1.5-2.5-2.2-3.9,0.5-6.4c3.7-3.4,3.8-8.4,2.6-13.2     c-1.6-6.3-5-11.6-9.5-16.4c-0.6-0.6-1.1-1.3-2-2.5c3.9-0.7,6.4,0.8,8.8,2.7C1509,418.3,1511.9,423.4,1513.1,429.4z"/>
			<path class="st0" d="M1479.9,433.4l13.1,9.2c-4.2,2.3-7,1.2-9.9-0.4C1480.3,440.5,1478.8,438.1,1479.9,433.4z"/>
			<path class="st0" d="M1474.7,424c-5-1.5-7-9.5-3.3-13c2.9-2.7,8.8-2.6,11.9,0.1c-2.2,4.1-4.4,8.2-6.7,12.2     C1476.3,423.8,1475.2,424.2,1474.7,424z"/>
			<path class="st0" d="M1473.7,404.5c-3.3,0.6-6,2.5-7.7,4.9l-5.8-4.4c3.3-0.3,6.7-1.7,9.8-3.2c3.3-1.6,4.4-5.1,3.2-8.6     c-1.9-6-6.5-9.1-12.2-11.1c-12.6-4.5-25.1-2.3-37.2,1.8c-9.2,3.1-18.1,7.1-27.2,10.7c-3.8,1.5-7.7,1.9-11.4,0.2     c-1.3-0.6-2.7-2.3-2.9-3.6c-0.1-1.1,1.2-2.8,2.4-3.6c2.5-1.6,5.5-2.6,8.1-4.1c2.7-1.6,6.2-3.3,5.4-7.3c-0.8-4-4.7-4-7.8-4.5     c-2.1-0.3-4.3,0.1-6.3-0.2c-1.6-0.2-3.1-1.1-4.5-1.7c0.6-1.5,0.9-3.2,1.9-4.4c1.5-1.8,3.3-3.3,5.3-4.6     c11.8-8.1,25.5-11,39.3-12.3c4.8-0.5,9.9,1.6,14.6,3.3c21.7,8,39.1,21.8,53.6,39.6c4.6,5.7,9,11.6,13.5,17.4     c-0.2,0.2-0.4,0.5-0.6,0.7c-0.5-0.2-1.2-0.2-1.6-0.5c-4.1-2.7-8.4-3.2-13.2-2.4c-2.2,0.2-4.4,0-6.5-0.7     C1481.9,404.6,1478,403.6,1473.7,404.5z"/>
			<path class="st0" d="M1458.7,552.9c13.6-10.3,26.9-21.1,40.3-31.7c-6.6,11-15.5,20.4-26.1,27.6c-10.6,7.4-22.1,12.6-34.1,16.5     l-0.2-0.6c0.6-0.2,1.2-0.4,1.9-0.8C1446.6,560.6,1453,557.1,1458.7,552.9z"/>
			<path class="st0" d="M1431.3,560c1.5,3.9,3.9,5.7,7.2,4.8l0.2,0.6c-6.3,2.1-12.7,3.8-19.3,5.3c-22.3,4.9-43.6,1.7-64.5-6     c-6.5-2.4-16-10.3-19.1-16.1c3.2,1.3,6.1,2.4,8.8,3.6c14,5.6,28.4,9,43.5,8.9c11-0.1,22.1-0.8,33.1-1.4c2.4-0.1,4.8-1.1,7.3-1.3     C1429.4,558.3,1431,559.2,1431.3,560z"/>
			<path class="st0" d="M1399,399.1c8.9-3.5,17.5-7.7,26.6-10.3c7.4-2.2,15.3-3.3,23.1-3.6c4.6-0.2,9.3,1.9,13.9,3.3     c1.5,0.4,2.8,1.8,4,3c3,3.2,2.5,6.1-1.8,7.1c-5.1,1.3-10.3,2.1-15.5,2.3c-15.4,0.8-30.9,0.9-46.1,4.1c-1.6,0.3-3.1,0.7-4.6,1.1     l-1.8-6.3C1397.5,399.7,1398.2,399.4,1399,399.1z"/>
			<path class="st0" d="M1384.9,400.2c4.1,1.4,8,1,11.9-0.3l1.8,6.3c-17.5,4.8-30.7,15.5-39.3,32.2c-9.9,19.2-1.8,39.1,15.6,47.9     c8.9,4.4,18.2,8.1,27.2,12.2c11.4,5.2,22.1,11.4,28.8,22.6c5.6,9.3,7.4,18.9,2.5,29c-0.6,1.2-2.4,2.3-3.9,2.6     c-14.4,3-29.1,4-43.7,3.1c-14.6-1-28.6-3.8-42-9.6c-4-1.8-7.9-3.8-11.6-6.1c-1.5-1.1-2.6-2.7-3.1-4.4c-1.3-4.9-0.8-9.9,0.7-14.9     c1.6-5.3,3.1-10.7,4.3-16.2c1.4-6.7-2-14-7.9-17.6c-3.1-1.8-6.2-3.6-9.5-5c-14.7-6-20.5-21.8-18.8-34.5     c2.5-17.9,10.9-32.9,21.9-46.5c7.1-8.8,15.8-16.4,23.8-24.5c8.1-8.1,17.5-14.3,27.5-19.7c6.3-3.4,12.9-6.3,19.6-8.7     c3.8-1.4,8.1-1.3,12.1-1.9l0.2,0.9c-2.4,0.9-4.9,1.6-7,2.8c-5.8,3.3-11.5,6.8-17.2,10.3c-0.5,0.3-0.9,0.7-1.2,1.1     c-2.4,3-5.1,6.1-3.2,10.2s6.1,4.5,9.9,5c2.4,0.3,4.8,0.3,7.2,0.4c0.1,0.3,0.1,0.7,0.2,1c-2.6,1.3-5.2,2.7-7.9,4     c-4.1,1.8-7.1,4.3-7,9.2C1377.1,395.3,1380,398.6,1384.9,400.2z"/>
			<path class="st0" d="M1320.1,536.7c4.7,3.3,7.8,7.6,9.7,13.7c-25.7-20.5-40.3-46.9-45.4-78.6c-1-6.3-1.7-12.8-0.1-19.1l1.1-0.1     c0.2,0.6,0.7,1.3,0.8,2c0.6,12.7,4.4,24.6,8.7,36.4c5.3,14.4,11.2,28.6,20.7,40.9C1317,533.5,1318.4,535.4,1320.1,536.7z"/>
		</g>
	</g>
	<g>
		<path class="st" d="M851.5,546.1h-32V476c0-10-1.7-17.3-5.1-21.9c-3.4-4.6-8.2-6.9-14.2-6.9c-6.4,0-12.3,2.4-17.9,7.3    c-5.6,4.9-9.5,11.2-11.9,19v72.8h-32V476c0-10-1.7-17.3-5.1-21.9c-3.4-4.6-8.2-6.9-14.2-6.9c-6.2,0-12.1,2.4-17.8,7.2    c-5.6,4.8-9.7,11.1-12,18.8v73h-32v-125h28.9v23.1c4.6-8.1,10.9-14.4,19-18.7c8-4.4,17.2-6.6,27.6-6.6c10.5,0,18.6,2.5,24.3,7.6    c5.7,5.1,9.4,11.4,11,18.8c5.1-8.6,11.5-15.1,19.3-19.7c7.8-4.5,16.7-6.8,26.7-6.8c7.6,0,13.9,1.4,18.8,4.3    c4.9,2.9,8.7,6.6,11.5,11.2c2.7,4.6,4.6,9.9,5.6,15.7c1,5.9,1.6,11.8,1.6,17.9V546.1z"/>
	</g>
	<g>
		<g>
			<path class="st" d="M1205.6,390.5c0,1.9-0.7,3.3-2,4.4c-1.3,1.1-3.2,1.6-5.6,1.6c-2.2,0-4.1-0.4-5.8-1.2v-4c1.4,0.6,2.6,1.1,3.5,1.3     c1,0.3,1.8,0.4,2.6,0.4c1,0,1.7-0.2,2.2-0.5s0.8-0.9,0.8-1.6c0-0.4-0.1-0.8-0.3-1.1c-0.2-0.3-0.6-0.6-1-0.9     c-0.4-0.3-1.3-0.8-2.7-1.4c-1.3-0.6-2.2-1.2-2.8-1.7c-0.6-0.5-1.1-1.2-1.5-1.9c-0.4-0.7-0.6-1.6-0.6-2.5c0-1.8,0.6-3.2,1.8-4.3     s2.9-1.6,5.1-1.6c1.1,0,2.1,0.1,3.1,0.4s2,0.6,3,1.1l-1.4,3.4c-1.1-0.5-2-0.8-2.7-0.9c-0.7-0.2-1.4-0.3-2.1-0.3     c-0.8,0-1.5,0.2-1.9,0.6c-0.4,0.4-0.7,0.9-0.7,1.5c0,0.4,0.1,0.7,0.3,1c0.2,0.3,0.5,0.6,0.9,0.8c0.4,0.3,1.3,0.7,2.8,1.4     c1.9,0.9,3.2,1.8,3.9,2.8S1205.6,389.2,1205.6,390.5z"/>
			<path class="st" d="M1218.1,396.2l-4.9-16.1h-0.1c0.2,3.3,0.3,5.5,0.3,6.6v9.6h-3.9v-20.5h5.9l4.9,15.7h0.1l5.2-15.7h5.9v20.5h-4.1v-9.7     c0-0.5,0-1,0-1.6s0.1-2.2,0.2-4.8h-0.1l-5.3,16.1H1218.1z"/>
		</g>
	</g>
	<g>
		<g>
			<path class="st" d="M1038.5,514.4c-2.3-1.8-3.5-5-3.5-9.4v-61.1h26.2v-24.6h-26.2v-40.6h-32v40.6h-16.5v24.6h16.5v71.8     c0,5.6,0.9,10.3,2.6,14.2c1.7,3.9,4.1,7.1,7,9.5c2.9,2.5,6.4,4.3,10.3,5.4c3.9,1.1,8.1,1.7,12.5,1.7c3.6,0,7.1-0.3,10.6-0.8     v-28.6C1043.2,517,1040.6,516.1,1038.5,514.4z"/>
		</g>
	</g>
	<g>
		<g>
			<path class="st" d="M516.6,512.3c-6.1-3.2-11.4-7.4-15.7-12.6c-4.4-5.2-7.8-11.3-10.1-18.2c-2.4-6.9-3.6-14.1-3.6-21.6     c0-6.7,1-13.4,3.1-20.2c2.1-6.8,5.1-12.8,9.2-18.1c4.1-5.3,9.1-9.7,15.3-13c6.1-3.3,13.2-5,21.3-5v-29.1     c-12.7,0.1-24.1,2.6-34.1,7.4c-10.3,4.9-19.1,11.4-26.2,19.3c-7.2,8-12.6,17-16.3,27.1c-3.7,10.1-5.6,20.3-5.6,30.7     c0,10.8,2,21.4,6.1,31.8c4.1,10.4,9.7,19.7,16.9,27.9c7.2,8.2,15.9,14.8,25.9,19.9c10.1,5.1,21.2,7.7,33.4,7.6c0,0,0,0,0,0V517     C529,516.9,522.5,515.3,516.6,512.3z"/>
		</g>
	</g>
	<g>
		<g>
			<path class="st" d="M585.2,515.4c-2.2-2.5-3.3-6.1-3.3-10.7V370.6h-32v145.3c0,9.9,2.7,17.5,8.2,22.8c5.5,5.3,13.2,8,23.3,8     c3.5,0,7.4-0.3,11.6-1v-26.5C589.7,518.8,587.1,517.5,585.2,515.4z"/>
		</g>
	</g>
	<g>
		<path class="st" d="M607.6,403.7V372h32v31.7H607.6z M607.6,546.1v-125h32v125H607.6z"/>
	</g>
	<g>
		<path class="st" d="M1145.7,546.6c-10,0-19.1-1.7-27.2-5.1c-8.1-3.4-15-8.1-20.8-14c-5.7-5.9-10.1-12.7-13.2-20.5c-3.1-7.8-4.7-16-4.7-24.6    c0-8.9,1.5-17.3,4.5-25.2c3-7.9,7.4-14.8,13.1-20.8c5.7-6,12.7-10.7,20.9-14.2c8.2-3.5,17.4-5.2,27.6-5.2    c10.2,0,19.3,1.8,27.3,5.2c8,3.5,14.9,8.2,20.5,14.1c5.6,5.9,9.9,12.7,12.9,20.5c2.9,7.8,4.4,15.9,4.4,24.3c0,2.1,0,4.1-0.1,6    c-0.1,1.9-0.3,3.5-0.6,4.8h-96.6c0.5,4.9,1.7,9.3,3.6,13.1s4.4,7.1,7.4,9.8c3,2.7,6.4,4.8,10.3,6.2c3.8,1.4,7.8,2.1,11.9,2.1    c6.4,0,12.4-1.6,18-4.7c5.6-3.1,9.5-7.2,11.6-12.3l27.4,7.6c-4.6,9.5-12,17.4-22.1,23.5C1171.7,543.6,1159.7,546.6,1145.7,546.6z     M1178.1,471.3c-0.8-9.4-4.3-16.9-10.4-22.5c-6.1-5.6-13.6-8.5-22.3-8.5c-4.3,0-8.3,0.8-12,2.3c-3.7,1.5-7,3.6-9.9,6.3    c-2.9,2.7-5.2,6-7,9.8c-1.8,3.8-2.9,8-3.2,12.6H1178.1z"/>
	</g>
	<g>
		<path class="st" d="M905.2,546.5c-6,0-11.7-1-16.9-3c-5.2-2-9.8-4.8-13.6-8.3c-3.8-3.6-6.8-7.8-8.9-12.5s-3.2-10-3.2-15.7    c0-5.9,1.3-11.3,3.9-16.3c2.6-5,6.3-9.3,11-12.8c4.7-3.5,10.3-6.2,16.8-8.2c6.5-2,13.7-3,21.5-3c5.6,0,11,0.5,16.3,1.4    c5.3,1,10.1,2.3,14.2,4.1v-7.2c0-8.3-2.3-14.6-7-19.1c-4.7-4.5-11.7-6.7-20.9-6.7c-6.7,0-13.2,1.2-19.6,3.6    c-6.4,2.4-12.9,5.9-19.6,10.5l-9.8-20.3c16.1-10.7,33.4-16,52-16c18,0,31.9,4.4,41.9,13.2c9.9,8.8,14.9,21.6,14.9,38.3v38.9    c0,3.3,0.6,5.7,1.8,7.2c1.2,1.4,3.1,2.2,5.8,2.4v27.2c-5.4,1.1-10.1,1.7-14.1,1.7c-6,0-10.7-1.4-14-4.1c-3.3-2.7-5.3-6.3-6.1-10.7    l-0.7-6.9c-5.6,7.3-12.3,12.9-20.3,16.7C922.8,544.6,914.3,546.5,905.2,546.5z M914.3,523.1c5.4,0,10.5-1,15.4-2.9    c4.8-1.9,8.6-4.5,11.3-7.6c3.5-2.7,5.2-5.7,5.2-9.1v-14.3c-3.8-1.4-8-2.6-12.4-3.5c-4.5-0.9-8.7-1.3-12.9-1.3    c-8.3,0-15,1.9-20.3,5.6c-5.2,3.7-7.9,8.5-7.9,14.2c0,5.4,2.1,9.9,6.2,13.5C903.1,521.3,908.2,523.1,914.3,523.1z"/>
	</g>
	<g>
		<path class="st" d="M460.2,626.5V690h-6.4v-63.6H460.2z"/>
		<path class="st" d="M512.5,645c3.8,3.7,5.6,9,5.6,16V690h-6.3v-28.4c0-5.4-1.4-9.5-4-12.4c-2.7-2.8-6.4-4.3-11.1-4.3c-4.8,0-8.6,1.5-11.5,4.5    c-2.9,3-4.3,7.5-4.3,13.4V690h-6.4v-49.7h6.4v8.5c1.6-3,3.9-5.4,6.8-7c3-1.6,6.3-2.4,10.1-2.4C503.9,639.5,508.8,641.3,512.5,645z    "/>
		<path class="st" d="M570.1,645c3.8,3.7,5.6,9,5.6,16V690h-6.3v-28.4c0-5.4-1.4-9.5-4-12.4c-2.7-2.8-6.4-4.3-11.1-4.3c-4.8,0-8.6,1.5-11.5,4.5    c-2.9,3-4.3,7.5-4.3,13.4V690h-6.4v-49.7h6.4v8.5c1.6-3,3.9-5.4,6.8-7c3-1.6,6.3-2.4,10.1-2.4C561.5,639.5,566.4,641.3,570.1,645z    "/>
		<path class="st" d="M599,687.6c-3.7-2.1-6.7-5.1-8.8-8.9c-2.2-3.9-3.2-8.4-3.2-13.5c0-5.2,1.1-9.7,3.3-13.5c2.2-3.9,5.2-6.8,8.9-8.9    c3.8-2.1,8-3.1,12.6-3.1c4.7,0,8.9,1,12.7,3.1c3.8,2.1,6.8,5.1,8.9,8.9c2.2,3.9,3.2,8.4,3.2,13.5c0,5.1-1.1,9.6-3.3,13.5    c-2.2,3.9-5.2,6.9-9,9c-3.8,2.1-8.1,3.1-12.7,3.1C606.9,690.8,602.7,689.7,599,687.6z M620.7,683c2.8-1.5,5-3.7,6.8-6.7    s2.6-6.7,2.6-11.1c0-4.4-0.9-8-2.5-11.1c-1.7-3-3.9-5.2-6.7-6.7c-2.8-1.5-5.8-2.2-9.1-2.2s-6.3,0.7-9.1,2.2    c-2.8,1.5-5,3.7-6.7,6.7c-1.7,3-2.5,6.7-2.5,11.1c0,4.4,0.8,8.1,2.5,11.1c1.7,3,3.9,5.2,6.6,6.7c2.8,1.5,5.8,2.2,9.1,2.2    S617.9,684.5,620.7,683z"/>
		<path class="st" d="M665.9,683.9l16.7-43.5h6.7L669.5,690h-7.2l-19.9-49.7h6.8L665.9,683.9z"/>
		<path class="st" d="M698.2,651.7c2-3.9,4.9-6.8,8.5-8.9c3.6-2.1,7.7-3.1,12.2-3.1c4.7,0,8.8,1.1,12.2,3.3c3.4,2.2,5.9,5,7.4,8.4v-10.9h6.4    V690h-6.4v-11c-1.6,3.4-4.1,6.2-7.5,8.4c-3.4,2.2-7.5,3.3-12.2,3.3c-4.5,0-8.5-1.1-12.1-3.2c-3.6-2.1-6.4-5.1-8.5-9    c-2-3.9-3-8.4-3-13.5C695.1,660,696.1,655.6,698.2,651.7z M736,654.7c-1.6-3-3.9-5.4-6.7-7c-2.8-1.6-5.9-2.5-9.3-2.5    c-3.5,0-6.7,0.8-9.5,2.4c-2.8,1.6-5,3.9-6.6,6.9c-1.6,3-2.4,6.6-2.4,10.7c0,4.1,0.8,7.6,2.4,10.7c1.6,3.1,3.8,5.4,6.6,7    c2.8,1.6,5.9,2.4,9.5,2.4c3.4,0,6.5-0.8,9.3-2.5c2.8-1.6,5-4,6.7-7c1.6-3,2.5-6.5,2.5-10.6C738.5,661.2,737.7,657.7,736,654.7z"/>
		<path class="st" d="M767.7,645.7v30.8c0,3,0.6,5.1,1.7,6.3c1.2,1.2,3.2,1.7,6.1,1.7h5.8v5.5h-6.8c-4.5,0-7.8-1-10-3.1    c-2.2-2.1-3.3-5.5-3.3-10.3v-30.8h-6.9v-5.4h6.9v-12.5h6.5v12.5h13.6v5.4H767.7z"/>
		<path class="st" d="M791.7,629.6c-0.9-0.9-1.4-2-1.4-3.4c0-1.3,0.5-2.4,1.4-3.3c0.9-0.9,2-1.3,3.3-1.3s2.4,0.4,3.3,1.3c0.9,0.9,1.4,2,1.4,3.3    c0,1.3-0.5,2.5-1.4,3.4s-2,1.4-3.3,1.4S792.6,630.5,791.7,629.6z M798.2,640.4V690h-6.4v-49.7H798.2z"/>
		<path class="st" d="M850.5,645c3.8,3.7,5.6,9,5.6,16V690h-6.3v-28.4c0-5.4-1.4-9.5-4-12.4c-2.7-2.8-6.4-4.3-11.1-4.3c-4.8,0-8.6,1.5-11.5,4.5    c-2.9,3-4.3,7.5-4.3,13.4V690h-6.4v-49.7h6.4v8.5c1.6-3,3.9-5.4,6.8-7c3-1.6,6.3-2.4,10.1-2.4C841.9,639.5,846.7,641.3,850.5,645z    "/>
		<path class="st" d="M903.2,642.9c3.5,2.2,5.9,4.9,7.5,8.3v-10.8h6.4v50.9c0,4.5-1,8.6-3,12.1c-2,3.5-4.7,6.2-8.2,8.1c-3.5,1.9-7.5,2.9-12,2.9    c-6.4,0-11.7-1.5-15.9-4.5c-4.2-3-6.8-7.2-7.9-12.4h6.3c1.1,3.5,3.2,6.2,6.2,8.3c3.1,2.1,6.8,3.1,11.2,3.1c3.2,0,6.1-0.7,8.6-2    c2.5-1.4,4.5-3.4,6-6c1.5-2.7,2.2-5.8,2.2-9.5V679c-1.6,3.4-4.1,6.2-7.5,8.4c-3.4,2.2-7.5,3.3-12.1,3.3c-4.5,0-8.6-1.1-12.2-3.2    c-3.6-2.1-6.4-5.1-8.5-9c-2-3.9-3-8.4-3-13.5c0-5.1,1-9.6,3-13.4c2-3.9,4.9-6.8,8.5-8.9c3.6-2.1,7.7-3.1,12.2-3.1    C895.7,639.6,899.8,640.7,903.2,642.9z M908.2,654.7c-1.6-3-3.9-5.4-6.7-7c-2.8-1.6-5.9-2.5-9.3-2.5c-3.5,0-6.7,0.8-9.5,2.4    c-2.8,1.6-5,3.9-6.6,6.9c-1.6,3-2.4,6.6-2.4,10.7c0,4.1,0.8,7.6,2.4,10.7c1.6,3.1,3.8,5.4,6.6,7c2.8,1.6,5.9,2.4,9.5,2.4    c3.4,0,6.5-0.8,9.3-2.5c2.8-1.6,5-4,6.7-7c1.6-3,2.5-6.5,2.5-10.6C910.7,661.2,909.9,657.7,908.2,654.7z"/>
		<path class="st" d="M976.1,645.7h-11.6V690h-6.4v-44.3h-6.9v-5.4h6.9v-3.5c0-5.4,1.4-9.4,4.1-11.9c2.8-2.5,7.2-3.8,13.4-3.8v5.5    c-4.1,0-7,0.8-8.7,2.4c-1.7,1.6-2.5,4.2-2.5,7.9v3.5h11.6V645.7z"/>
		<path class="st" d="M995.3,687.6c-3.7-2.1-6.7-5.1-8.8-8.9c-2.2-3.9-3.2-8.4-3.2-13.5c0-5.2,1.1-9.7,3.3-13.5c2.2-3.9,5.2-6.8,8.9-8.9    c3.8-2.1,8-3.1,12.6-3.1c4.7,0,8.9,1,12.7,3.1c3.8,2.1,6.8,5.1,8.9,8.9c2.2,3.9,3.2,8.4,3.2,13.5c0,5.1-1.1,9.6-3.3,13.5    c-2.2,3.9-5.2,6.9-9,9c-3.8,2.1-8.1,3.1-12.7,3.1C1003.2,690.8,999,689.7,995.3,687.6z M1017,683c2.8-1.5,5-3.7,6.8-6.7    c1.7-3,2.6-6.7,2.6-11.1c0-4.4-0.8-8-2.5-11.1c-1.7-3-3.9-5.2-6.7-6.7c-2.8-1.5-5.8-2.2-9.1-2.2c-3.3,0-6.3,0.7-9.1,2.2    c-2.8,1.5-5,3.7-6.7,6.7c-1.7,3-2.5,6.7-2.5,11.1c0,4.4,0.8,8.1,2.5,11.1c1.7,3,3.9,5.2,6.6,6.7c2.8,1.5,5.8,2.2,9.1,2.2    C1011.1,685.2,1014.2,684.5,1017,683z"/>
		<path class="st" d="M1057.3,642c2.9-1.7,6.4-2.5,10.6-2.5v6.6h-1.7c-4.6,0-8.3,1.2-11.1,3.7c-2.8,2.5-4.2,6.6-4.2,12.5V690h-6.4v-49.7h6.4    v8.8C1052.3,646.1,1054.4,643.7,1057.3,642z"/>
		<path class="st" d="M1115.2,642c2.9-1.7,6.4-2.5,10.6-2.5v6.6h-1.7c-4.6,0-8.3,1.2-11.1,3.7c-2.8,2.5-4.2,6.6-4.2,12.5V690h-6.4v-49.7h6.4    v8.8C1110.1,646.1,1112.3,643.7,1115.2,642z"/>
		<path class="st" d="M1180.1,667.7h-41.2c0.2,3.8,1.1,7,2.7,9.6c1.6,2.7,3.8,4.7,6.5,6c2.7,1.4,5.6,2,8.7,2c4.1,0,7.6-1,10.4-3    c2.8-2,4.7-4.7,5.6-8.1h6.7c-1.2,4.9-3.8,8.8-7.8,11.9c-4,3.1-9,4.6-15,4.6c-4.7,0-8.9-1-12.6-3.1c-3.7-2.1-6.6-5.1-8.7-8.9    c-2.1-3.9-3.1-8.4-3.1-13.5c0-5.2,1-9.7,3.1-13.6c2.1-3.9,4.9-6.9,8.6-8.9c3.7-2.1,7.9-3.1,12.6-3.1s8.9,1,12.4,3.1    c3.5,2.1,6.3,4.8,8.2,8.3c1.9,3.5,2.9,7.4,2.9,11.6C1180.2,664.8,1180.2,666.5,1180.1,667.7z M1171.6,653    c-1.5-2.6-3.7-4.6-6.3-5.9c-2.7-1.3-5.6-2-8.7-2c-4.7,0-8.8,1.5-12.1,4.5c-3.3,3-5.2,7.3-5.5,12.8h34.9    C1173.8,658.8,1173.1,655.6,1171.6,653z"/>
		<path class="st" d="M1195,686.8c-3.6-2.6-5.6-6.2-6-10.8h6.5c0.3,2.8,1.6,5,4,6.8c2.3,1.7,5.5,2.6,9.4,2.6c3.5,0,6.2-0.8,8.1-2.5    c2-1.6,3-3.7,3-6.1c0-1.7-0.5-3.1-1.6-4.2c-1.1-1.1-2.5-2-4.1-2.6c-1.7-0.6-3.9-1.3-6.8-2c-3.7-1-6.7-1.9-9-2.9    c-2.3-1-4.3-2.4-5.9-4.3c-1.6-1.9-2.4-4.5-2.4-7.7c0-2.4,0.7-4.7,2.2-6.7c1.5-2.1,3.5-3.7,6.2-4.9c2.7-1.2,5.7-1.8,9.1-1.8    c5.3,0,9.6,1.3,12.9,4c3.3,2.7,5,6.4,5.3,11.1h-6.4c-0.2-2.9-1.3-5.3-3.4-7c-2.1-1.8-5-2.7-8.6-2.7c-3.2,0-5.8,0.8-7.8,2.3    c-2,1.5-3,3.4-3,5.6c0,1.9,0.6,3.5,1.8,4.8s2.7,2.2,4.4,2.9c1.8,0.7,4.1,1.5,7.1,2.3c3.6,1,6.4,1.9,8.6,2.8c2.1,0.9,3.9,2.2,5.5,4    c1.5,1.8,2.3,4.1,2.4,7c0,2.7-0.7,5-2.2,7.1c-1.5,2.1-3.5,3.7-6.1,5c-2.6,1.2-5.6,1.8-9,1.8C1203.3,690.8,1198.6,689.5,1195,686.8    z"/>
		<path class="st" d="M1238.2,629.6c-0.9-0.9-1.4-2-1.4-3.4c0-1.3,0.5-2.4,1.4-3.3c0.9-0.9,2-1.3,3.3-1.3c1.3,0,2.4,0.4,3.3,1.3    c0.9,0.9,1.4,2,1.4,3.3c0,1.3-0.5,2.5-1.4,3.4c-0.9,0.9-2,1.4-3.3,1.4C1240.2,631,1239.1,630.5,1238.2,629.6z M1244.6,640.4V690    h-6.4v-49.7H1244.6z"/>
		<path class="st" d="M1265.5,622.7V690h-6.4v-67.3H1265.5z"/>
		<path class="st" d="M1279.8,629.6c-0.9-0.9-1.4-2-1.4-3.4c0-1.3,0.5-2.4,1.4-3.3c0.9-0.9,2-1.3,3.3-1.3c1.3,0,2.4,0.4,3.3,1.3    c0.9,0.9,1.4,2,1.4,3.3c0,1.3-0.5,2.5-1.4,3.4c-0.9,0.9-2,1.4-3.3,1.4C1281.8,631,1280.8,630.5,1279.8,629.6z M1286.3,640.4V690    h-6.4v-49.7H1286.3z"/>
		<path class="st" d="M1345.5,667.7h-41.2c0.2,3.8,1.1,7,2.7,9.6c1.6,2.7,3.8,4.7,6.5,6c2.7,1.4,5.6,2,8.7,2c4.1,0,7.6-1,10.4-3    c2.8-2,4.7-4.7,5.6-8.1h6.7c-1.2,4.9-3.8,8.8-7.8,11.9c-4,3.1-9,4.6-15,4.6c-4.7,0-8.9-1-12.6-3.1c-3.7-2.1-6.6-5.1-8.7-8.9    c-2.1-3.9-3.1-8.4-3.1-13.5c0-5.2,1-9.7,3.1-13.6c2.1-3.9,4.9-6.9,8.6-8.9c3.7-2.1,7.9-3.1,12.6-3.1s8.9,1,12.4,3.1    c3.5,2.1,6.3,4.8,8.2,8.3c1.9,3.5,2.9,7.4,2.9,11.6C1345.7,664.8,1345.6,666.5,1345.5,667.7z M1337,653c-1.5-2.6-3.7-4.6-6.3-5.9    c-2.7-1.3-5.6-2-8.7-2c-4.7,0-8.8,1.5-12.1,4.5c-3.3,3-5.2,7.3-5.5,12.8h34.9C1339.3,658.8,1338.6,655.6,1337,653z"/>
		<path class="st" d="M1395.2,645c3.8,3.7,5.6,9,5.6,16V690h-6.3v-28.4c0-5.4-1.3-9.5-4-12.4c-2.7-2.8-6.4-4.3-11.1-4.3    c-4.8,0-8.6,1.5-11.5,4.5c-2.9,3-4.3,7.5-4.3,13.4V690h-6.4v-49.7h6.4v8.5c1.6-3,3.9-5.4,6.8-7c3-1.6,6.3-2.4,10.1-2.4    C1386.6,639.5,1391.4,641.3,1395.2,645z"/>
		<path class="st" d="M1415.1,651.7c2.1-3.9,4.9-6.8,8.6-8.9c3.6-2.1,7.8-3.1,12.5-3.1c6.1,0,11.2,1.5,15.1,4.5c4,3,6.5,7.2,7.7,12.4h-6.8    c-0.8-3.6-2.7-6.4-5.5-8.4c-2.8-2-6.3-3-10.5-3c-3.3,0-6.3,0.8-9,2.3c-2.7,1.5-4.8,3.8-6.3,6.8c-1.5,3-2.3,6.7-2.3,11.1    c0,4.4,0.8,8.1,2.3,11.1c1.5,3,3.7,5.3,6.3,6.8c2.7,1.5,5.7,2.3,9,2.3c4.2,0,7.7-1,10.5-3c2.8-2,4.7-4.9,5.5-8.5h6.8    c-1.2,5.1-3.7,9.2-7.7,12.3c-4,3.1-9,4.6-15.1,4.6c-4.7,0-8.8-1-12.5-3.1c-3.6-2.1-6.5-5.1-8.6-8.9c-2.1-3.9-3.1-8.4-3.1-13.5    C1412,660.1,1413.1,655.6,1415.1,651.7z"/>
		<path class="st" d="M1515.5,667.7h-41.2c0.2,3.8,1.1,7,2.7,9.6c1.6,2.7,3.8,4.7,6.5,6c2.7,1.4,5.6,2,8.7,2c4.1,0,7.6-1,10.4-3    c2.8-2,4.7-4.7,5.6-8.1h6.7c-1.2,4.9-3.8,8.8-7.8,11.9c-4,3.1-9,4.6-15,4.6c-4.7,0-8.9-1-12.6-3.1c-3.7-2.1-6.6-5.1-8.7-8.9    c-2.1-3.9-3.1-8.4-3.1-13.5c0-5.2,1-9.7,3.1-13.6c2.1-3.9,4.9-6.9,8.6-8.9c3.7-2.1,7.9-3.1,12.6-3.1s8.9,1,12.4,3.1    c3.5,2.1,6.3,4.8,8.2,8.3c1.9,3.5,2.9,7.4,2.9,11.6C1515.6,664.8,1515.6,666.5,1515.5,667.7z M1506.9,653    c-1.5-2.6-3.7-4.6-6.3-5.9c-2.7-1.3-5.6-2-8.7-2c-4.7,0-8.8,1.5-12.1,4.5c-3.3,3-5.2,7.3-5.5,12.8h34.9    C1509.2,658.8,1508.5,655.6,1506.9,653z"/>
	</g>
</g>
</svg>